<svg width="100" height="122" viewBox="0 0 100 122" fill="none" xmlns="http://www.w3.org/2000/svg">
<rect y="6" width="100" height="100" rx="7" fill="#292929"/>
<path d="M16.182 20.6H32.706C38.282 20.6 42.464 22.096 45.252 25.088C48.04 28.08 49.434 32.466 49.434 38.246V45.284C49.434 51.064 48.04 55.45 45.252 58.442C42.464 61.434 38.282 62.93 32.706 62.93H27.402V92H16.182V20.6ZM32.706 52.73C34.542 52.73 35.902 52.22 36.786 51.2C37.738 50.18 38.214 48.446 38.214 45.998V37.532C38.214 35.084 37.738 33.35 36.786 32.33C35.902 31.31 34.542 30.8 32.706 30.8H27.402V52.73H32.706ZM60.6118 20.6H75.8098L87.4378 92H76.2178L74.1778 77.822V78.026H61.4278L59.3878 92H48.9838L60.6118 20.6ZM72.8518 68.336L67.8538 33.044H67.6498L62.7538 68.336H72.8518Z" fill="white"/>
</svg>
